<?xml version="1.0" standalone="no"?><!DOCTYPE svg PUBLIC "-//W3C//DTD SVG 1.1//EN" "http://www.w3.org/Graphics/SVG/1.1/DTD/svg11.dtd"><svg t="1656237065514" class="icon" viewBox="0 0 1024 1024" version="1.1" xmlns="http://www.w3.org/2000/svg" p-id="5829" xmlns:xlink="http://www.w3.org/1999/xlink" width="200" height="200"><defs><style type="text/css">@font-face { font-family: feedback-iconfont; src: url("//at.alicdn.com/t/font_1031158_u69w8yhxdu.woff2?t=1630033759944") format("woff2"), url("//at.alicdn.com/t/font_1031158_u69w8yhxdu.woff?t=1630033759944") format("woff"), url("//at.alicdn.com/t/font_1031158_u69w8yhxdu.ttf?t=1630033759944") format("truetype"); }
</style></defs><path d="M384.512 683.86133332l-78.336 132.608c-7.168 12.288-23.04 16.384-34.816 9.216-12.288-7.168-16.384-23.04-9.216-34.816l78.336-132.608c7.168-12.288 23.04-16.384 34.816-9.216 12.288 6.656 16.384 22.528 9.216 34.816zM749.056 716.11733332l-33.28 56.832c-7.168 12.288-23.04 16.384-34.816 9.216-12.288-7.168-16.384-23.04-9.216-34.816l33.28-56.832c7.168-12.288 23.04-16.384 34.816-9.216 12.288 6.656 16.384 22.528 9.216 34.816zM624.64 537.94133332l-192 325.12c-7.168 12.288-23.04 16.384-34.816 9.216-12.288-7.168-16.384-23.04-9.216-34.816l192-325.12c7.168-12.288 23.04-16.384 34.816-9.216 12.8 6.656 16.384 22.528 9.216 34.816zM183.296 685.90933332c-6.144 0-12.8-2.048-17.408-6.656-61.44-57.856-96.768-138.752-96.768-223.232 0-168.448 137.216-305.664 305.664-305.664 81.92 0 158.208 31.744 216.064 89.6 29.184 29.184 51.712 62.976 67.072 100.864 5.12 13.312-1.024 28.16-13.824 33.28-13.312 5.12-28.16-1.024-33.28-13.824-12.8-31.744-31.744-59.904-55.808-83.968-48.128-48.128-112.128-74.752-180.224-74.752-140.288 0-254.464 114.176-254.464 254.464 0 71.168 28.672 137.216 80.896 185.856 10.24 9.728 10.752 26.112 1.024 36.352-5.12 5.12-12.288 7.68-18.944 7.68z" fill="#000000" p-id="5830"></path><path d="M887.808 796.50133332c-6.656 0-13.312-2.56-17.92-7.68-10.24-10.24-10.24-26.112 0-36.352 43.008-43.008 66.56-99.84 66.56-160.256s-23.552-117.248-66.56-160.256c-59.392-59.392-145.92-80.896-226.304-56.32-13.312 4.096-27.648-3.584-31.744-16.896-4.096-13.312 3.584-27.648 16.896-31.744 98.304-30.208 204.8-3.584 277.504 69.12 52.224 52.224 81.408 122.368 81.408 196.608s-28.672 143.872-81.408 196.608c-5.12 4.608-11.776 7.168-18.432 7.168z" fill="#000000" p-id="5831"></path></svg>