<?xml version="1.0" standalone="no"?><!DOCTYPE svg PUBLIC "-//W3C//DTD SVG 1.1//EN" "http://www.w3.org/Graphics/SVG/1.1/DTD/svg11.dtd"><svg t="1656580766475" class="icon" viewBox="0 0 1024 1024" version="1.1" xmlns="http://www.w3.org/2000/svg" p-id="2200" xmlns:xlink="http://www.w3.org/1999/xlink" width="200" height="200"><defs><style type="text/css">@font-face { font-family: feedback-iconfont; src: url("//at.alicdn.com/t/font_1031158_u69w8yhxdu.woff2?t=1630033759944") format("woff2"), url("//at.alicdn.com/t/font_1031158_u69w8yhxdu.woff?t=1630033759944") format("woff"), url("//at.alicdn.com/t/font_1031158_u69w8yhxdu.ttf?t=1630033759944") format("truetype"); }
</style></defs><path d="M844.119259 381.215149L682.39162 542.942788c-11.551974 11.551974-28.879936 11.551974-40.43191 0L481.057212 381.215149c-11.551974-11.551974-11.551974-28.879936 0-40.43191l161.727639-160.902498c11.551974-11.551974 28.879936-11.551974 40.43191 0l160.902498 161.727639c11.551974 10.726833 11.551974 28.879936 0 39.606769z m-415.871072 471.15552H199.684126c-15.677679 0-28.879936-12.377115-28.879936-28.879936V595.751813c0-15.677679 12.377115-28.879936 28.879936-28.879935h228.564061c15.677679 0 28.879936 12.377115 28.879935 28.879935v228.564061c0 15.677679-12.377115 28.054795-28.879935 28.054795z m0-342.433522H199.684126c-15.677679 0-28.879936-12.377115-28.879936-28.879935V253.318292c0-15.677679 12.377115-28.879936 28.879936-28.879936h228.564061c15.677679 0 28.879936 12.377115 28.879935 28.879936v228.564061c0 15.677679-12.377115 28.054795-28.879935 28.054794z m113.86946 56.934731h228.564061c15.677679 0 28.879936 12.377115 28.879936 28.879935v228.564061c0 15.677679-12.377115 28.879936-28.879936 28.879936H542.117647c-15.677679 0-28.879936-12.377115-28.879935-28.879936V595.751813c0.825141-16.50282 13.202256-28.879936 28.879935-28.879935z" fill="#999999" p-id="2201"></path></svg>